<svg width="25" height="30" viewBox="0 0 25 30" fill="none" xmlns="http://www.w3.org/2000/svg">
<path d="M16.5177 4.12815C16.5177 3.31168 16.2756 2.51354 15.822 1.83467C15.3684 1.1558 14.7237 0.626688 13.9693 0.314238C13.215 0.00178865 12.385 -0.0799624 11.5842 0.0793231C10.7834 0.238609 10.0479 0.631777 9.47053 1.20911C8.89319 1.78644 8.50003 2.52201 8.34074 3.32279C8.18146 4.12357 8.26321 4.9536 8.57566 5.70792C8.88811 6.46224 9.41722 7.10697 10.0961 7.56058C10.775 8.01419 11.5731 8.2563 12.3896 8.2563C13.4844 8.2563 14.5344 7.82137 15.3086 7.04719C16.0828 6.27301 16.5177 5.223 16.5177 4.12815ZM12.3896 6.19222C11.9813 6.19222 11.5823 6.07117 11.2428 5.84436C10.9034 5.61756 10.6388 5.2952 10.4826 4.91804C10.3264 4.54088 10.2855 4.12586 10.3652 3.72547C10.4448 3.32508 10.6414 2.9573 10.93 2.66863C11.2187 2.37996 11.5865 2.18338 11.9869 2.10374C12.3873 2.02409 12.8023 2.06497 13.1795 2.22119C13.5566 2.37742 13.879 2.64198 14.1058 2.98141C14.3326 3.32085 14.4536 3.71991 14.4536 4.12815C14.4536 4.67558 14.2362 5.20058 13.8491 5.58767C13.462 5.97476 12.937 6.19222 12.3896 6.19222ZM24.0438 16.261L18.2167 9.65342C17.8293 9.21425 17.3528 8.86254 16.819 8.62166C16.2852 8.38078 15.7062 8.25623 15.1206 8.2563H9.65854C9.0729 8.25623 8.49394 8.38078 7.96013 8.62166C7.42632 8.86254 6.94987 9.21425 6.56243 9.65342L0.73529 16.261C0.262071 16.745 -0.00199957 17.3956 1.14018e-05 18.0725C0.00202237 18.7494 0.269954 19.3983 0.746041 19.8795C1.22213 20.3607 1.86823 20.6355 2.54506 20.6447C3.22188 20.6538 3.87521 20.3967 4.36419 19.9286L6.46697 18.2413L4.33323 26.3531C4.05062 26.9766 4.02729 27.6869 4.26838 28.3277C4.50946 28.9684 4.99521 29.4871 5.61876 29.7698C6.24231 30.0524 6.95259 30.0757 7.59335 29.8346C8.2341 29.5935 8.75284 29.1078 9.03545 28.4842L12.3896 22.6958L15.7437 28.4842C16.0389 29.0868 16.5573 29.5507 17.1889 29.7775C17.8205 30.0042 18.5156 29.9759 19.1267 29.6987C19.7378 29.4214 20.2168 28.9169 20.4622 28.2923C20.7075 27.6677 20.6998 26.9721 20.4407 26.3531L18.3122 18.2413L20.4149 19.9286C20.9039 20.3967 21.5573 20.6538 22.2341 20.6447C22.9109 20.6355 23.557 20.3607 24.0331 19.8795C24.5092 19.3983 24.7771 18.7494 24.7791 18.0725C24.7811 17.3956 24.5171 16.745 24.0438 16.261ZM22.559 18.4244C22.5111 18.4724 22.4542 18.5105 22.3915 18.5364C22.3289 18.5624 22.2617 18.5758 22.1939 18.5758C22.1261 18.5758 22.059 18.5624 21.9963 18.5364C21.9337 18.5105 21.8768 18.4724 21.8288 18.4244C21.8017 18.3986 21.7747 18.3728 21.745 18.3496L17.1627 14.6756C16.9936 14.5406 16.7864 14.4622 16.5702 14.4514C16.3541 14.4406 16.1401 14.4981 15.9584 14.6156C15.7767 14.7331 15.6366 14.9047 15.5577 15.1063C15.4789 15.3078 15.4655 15.529 15.5192 15.7386L18.4708 26.962C18.486 27.0218 18.5068 27.0801 18.5328 27.1361C18.5625 27.1977 18.5798 27.2646 18.5835 27.3328C18.5872 27.4011 18.5773 27.4695 18.5544 27.5339C18.5314 27.5983 18.4959 27.6575 18.4499 27.7081C18.4039 27.7587 18.3483 27.7996 18.2863 27.8285C18.2243 27.8574 18.1572 27.8737 18.0889 27.8764C18.0205 27.8792 17.9523 27.8683 17.8883 27.8444C17.8242 27.8206 17.7655 27.7842 17.7155 27.7375C17.6656 27.6907 17.6255 27.6345 17.5975 27.5722C17.5848 27.5443 17.5706 27.5171 17.5549 27.4909L13.2823 20.1247C13.1916 19.9683 13.0613 19.8385 12.9047 19.7483C12.748 19.658 12.5704 19.6105 12.3896 19.6105C12.2088 19.6105 12.0311 19.658 11.8745 19.7483C11.7178 19.8385 11.5876 19.9683 11.4969 20.1247L7.22938 27.4844C7.21366 27.5107 7.19945 27.5378 7.18681 27.5657C7.15815 27.6272 7.11765 27.6824 7.06763 27.7283C7.0176 27.7741 6.95903 27.8096 6.89526 27.8327C6.7993 27.8679 6.69505 27.8738 6.59574 27.8497C6.49643 27.8255 6.40653 27.7724 6.33744 27.6971C6.26834 27.6218 6.22317 27.5276 6.20765 27.4266C6.19212 27.3256 6.20695 27.2223 6.25024 27.1297C6.27623 27.0737 6.29696 27.0154 6.31216 26.9555L9.25992 15.7386C9.31368 15.529 9.3002 15.3078 9.22139 15.1063C9.14258 14.9047 9.00242 14.7331 8.82073 14.6156C8.63904 14.4981 8.425 14.4406 8.20889 14.4514C7.99277 14.4622 7.78551 14.5406 7.6164 14.6756L3.03415 18.3496C3.00448 18.3728 2.97739 18.3986 2.9503 18.4244C2.9029 18.4744 2.84598 18.5144 2.78289 18.542C2.7198 18.5697 2.65182 18.5844 2.58295 18.5853C2.51408 18.5863 2.44572 18.5734 2.38189 18.5475C2.31807 18.5216 2.26008 18.4832 2.21133 18.4346C2.16259 18.3859 2.12407 18.328 2.09807 18.2642C2.07206 18.2004 2.05909 18.1321 2.05991 18.0632C2.06073 17.9943 2.07533 17.9263 2.10284 17.8632C2.13036 17.8 2.17024 17.7431 2.22013 17.6956C2.23561 17.6801 2.2498 17.6646 2.26399 17.6478L8.11049 11.0183C8.30426 10.7988 8.54251 10.6231 8.80942 10.5028C9.07632 10.3824 9.36577 10.3203 9.65854 10.3204H15.1206C15.4134 10.3203 15.7028 10.3824 15.9697 10.5028C16.2366 10.6231 16.4749 10.7988 16.6687 11.0183L22.5151 17.6478C22.5293 17.6646 22.5435 17.6801 22.559 17.6956C22.6555 17.7923 22.7097 17.9234 22.7097 18.06C22.7097 18.1966 22.6555 18.3277 22.559 18.4244Z" fill="#EA2A2A"/>
</svg>
