<svg width="27" height="27" viewBox="0 0 27 27" fill="none" xmlns="http://www.w3.org/2000/svg">
<path d="M25.9983 6.00288H22.4103L25.7056 2.7088C25.7986 2.61584 25.8723 2.50549 25.9226 2.38404C25.973 2.26259 25.9988 2.13242 25.9988 2.00096C25.9988 1.8695 25.973 1.73933 25.9226 1.61788C25.8723 1.49643 25.7986 1.38607 25.7056 1.29312C25.6127 1.20017 25.5023 1.12643 25.3809 1.07612C25.2594 1.02582 25.1293 0.999923 24.9978 0.999923C24.8663 0.999923 24.7362 1.02582 24.6147 1.07612C24.4933 1.12643 24.3829 1.20017 24.29 1.29312L20.9959 4.58845V1.00048C20.9959 0.735136 20.8905 0.48066 20.7029 0.293034C20.5152 0.105407 20.2608 0 19.9954 0C19.7301 0 19.4756 0.105407 19.288 0.293034C19.1003 0.48066 18.9949 0.735136 18.9949 1.00048V5.07368C17.4705 4.19361 15.6984 3.84066 13.953 4.06945C12.2077 4.29824 10.5864 5.09603 9.34031 6.33929C4.3254 11.2654 0.554845 22.9823 0.187168 24.1541C0.0138138 24.5262 -0.0408943 24.9426 0.0304639 25.3469C0.101822 25.7511 0.295793 26.1237 0.586069 26.4139C0.876344 26.7042 1.24888 26.8982 1.65314 26.9696C2.0574 27.0409 2.47383 26.9862 2.84594 26.8128C4.01775 26.4452 15.7496 22.6696 20.6632 17.6572C21.9056 16.4107 22.7025 14.7895 22.9306 13.0444C23.1587 11.2994 22.8053 9.52779 21.9251 8.00384H25.9983C26.2636 8.00384 26.5181 7.89843 26.7057 7.7108C26.8934 7.52318 26.9988 7.2687 26.9988 7.00336C26.9988 6.73801 26.8934 6.48354 26.7057 6.29591C26.5181 6.10828 26.2636 6.00288 25.9983 6.00288ZM19.23 16.2578C18.112 17.3983 16.5725 18.4839 14.8717 19.4756L11.6977 16.3003C11.6047 16.2074 11.4944 16.1336 11.3729 16.0833C11.2515 16.033 11.1213 16.0071 10.9898 16.0071C10.8584 16.0071 10.7282 16.033 10.6068 16.0833C10.4853 16.1336 10.375 16.2074 10.282 16.3003C10.1891 16.3933 10.1153 16.5036 10.065 16.6251C10.0147 16.7465 9.98881 16.8767 9.98881 17.0082C9.98881 17.1396 10.0147 17.2698 10.065 17.3912C10.1153 17.5127 10.1891 17.623 10.282 17.716L13.0446 20.4786C7.93338 23.1286 2.24941 24.9082 2.16437 24.9345C2.10278 24.9544 2.0433 24.9804 1.98678 25.012C2.017 24.9557 2.04171 24.8967 2.06057 24.8357C2.09683 24.7193 5.56224 13.6328 10.0644 8.49407L14.2877 12.7173C14.4754 12.9051 14.73 13.0105 14.9955 13.0105C15.261 13.0105 15.5156 12.9051 15.7034 12.7173C15.8911 12.5296 15.9966 12.275 15.9966 12.0095C15.9966 11.744 15.8911 11.4894 15.7034 11.3017L11.5138 7.11341C12.7413 6.24008 14.2522 5.86018 15.7468 6.04912C17.2413 6.23806 18.6102 6.98201 19.5817 8.13333C20.5532 9.28465 21.0563 10.7592 20.9912 12.2642C20.926 13.7692 20.2974 15.1947 19.23 16.2578Z" fill="#EA2A2A"/>
</svg>
