<svg width="21" height="18" viewBox="0 0 21 18" fill="none" xmlns="http://www.w3.org/2000/svg">
<path d="M20.1915 2.71343C20.1348 2.57638 20.0387 2.45923 19.9154 2.3768C19.7921 2.29436 19.6471 2.25035 19.4987 2.25032H16.646C16.2472 1.57175 15.6795 1.00794 14.9983 0.613679C14.317 0.219422 13.5454 0.00814143 12.7583 0.00037828C12.1719 -0.00731296 11.5899 0.102351 11.0466 0.322917C10.5032 0.543484 10.0094 0.870498 9.59432 1.28472C9.16709 1.70398 8.82799 2.20443 8.59696 2.75663C8.36593 3.30884 8.24764 3.90167 8.24904 4.50026V5.07118C4.47477 4.07558 1.38767 1.00535 1.35486 0.972539C1.25424 0.87103 1.12671 0.800387 0.987288 0.768927C0.847867 0.737466 0.702359 0.7465 0.5679 0.794965C0.433441 0.843429 0.31563 0.929305 0.228341 1.04248C0.141052 1.15566 0.0879206 1.29142 0.0752026 1.43378C-0.328849 5.91397 0.972366 8.91201 2.13765 10.6379C2.70583 11.4911 3.39703 12.2556 4.18884 12.9066C2.76107 14.55 0.513003 15.4134 0.488629 15.4228C0.382801 15.4624 0.287299 15.5254 0.209258 15.6072C0.131217 15.6889 0.0726548 15.7872 0.0379481 15.8948C0.00324137 16.0023 -0.00671282 16.1163 0.00882902 16.2283C0.0243709 16.3402 0.0650068 16.4472 0.127701 16.5412C0.198012 16.6462 0.479254 17.0146 1.16642 17.3587C2.01577 17.7843 3.13793 17.9999 4.49914 17.9999C11.1243 17.9999 16.6601 12.8982 17.2254 6.33396L20.0293 3.53091C20.1342 3.42596 20.2056 3.29228 20.2344 3.14677C20.2633 3.00126 20.2484 2.85045 20.1915 2.71343ZM15.9729 5.47054C15.8443 5.59944 15.767 5.77071 15.7554 5.9524C15.3739 11.8669 10.4315 16.4999 4.49914 16.4999C3.50917 16.4999 2.81169 16.3687 2.32233 16.2112C3.40136 15.6253 4.90601 14.6175 5.87348 13.1663C5.93027 13.0809 5.96895 12.9849 5.98716 12.884C6.00537 12.7831 6.0027 12.6796 5.97933 12.5798C5.95597 12.48 5.91239 12.3861 5.85129 12.3038C5.7902 12.2215 5.71288 12.1526 5.62411 12.1013C5.58005 12.076 1.50766 9.63199 1.49923 3.10154C2.99919 4.32026 5.7413 6.21115 8.87434 6.73801C8.98172 6.75611 9.09175 6.75062 9.19679 6.7219C9.30182 6.69319 9.39935 6.64195 9.48259 6.57174C9.56582 6.50152 9.63277 6.41403 9.67878 6.31534C9.72479 6.21664 9.74875 6.10911 9.749 6.00022V4.50026C9.74816 4.10019 9.82735 3.70399 9.98191 3.33499C10.1365 2.96598 10.3633 2.63161 10.649 2.35156C10.9229 2.07716 11.249 1.86045 11.6081 1.71425C11.9671 1.56804 12.3519 1.4953 12.7395 1.50034C13.9264 1.51534 15.0354 2.23907 15.4995 3.30123C15.558 3.43477 15.6541 3.54836 15.7762 3.62811C15.8982 3.70787 16.0408 3.75032 16.1866 3.75028H17.6866L15.9729 5.47054Z" fill="#C89292"/>
</svg>
