<svg width="18" height="17" viewBox="0 0 18 17" fill="none" xmlns="http://www.w3.org/2000/svg">
<path d="M17.2027 7.74361L13.6528 10.8417L14.7162 15.4543C14.7724 15.6954 14.7564 15.9478 14.67 16.1799C14.5836 16.4119 14.4308 16.6134 14.2305 16.759C14.0303 16.9047 13.7915 16.9881 13.5442 16.9988C13.2968 17.0095 13.0517 16.947 12.8397 16.8192L8.81664 14.3791L4.80229 16.8192C4.59021 16.947 4.34516 17.0095 4.09779 16.9988C3.85041 16.9881 3.61167 16.9047 3.41143 16.759C3.21118 16.6134 3.05831 16.4119 2.97194 16.1799C2.88556 15.9478 2.8695 15.6954 2.92577 15.4543L3.98761 10.8465L0.436874 7.74361C0.249072 7.58164 0.113271 7.36782 0.0465021 7.12898C-0.0202671 6.89013 -0.0150326 6.63689 0.0615488 6.40101C0.13813 6.16513 0.28265 5.95711 0.476984 5.80304C0.671319 5.64896 0.906817 5.55569 1.15395 5.53493L5.83421 5.12956L7.66113 0.772016C7.75654 0.543368 7.91746 0.348059 8.12364 0.210681C8.32982 0.0733037 8.57203 0 8.81979 0C9.06754 0 9.30976 0.0733037 9.51594 0.210681C9.72211 0.348059 9.88304 0.543368 9.97844 0.772016L11.8109 5.12956L16.4896 5.53493C16.7367 5.55569 16.9722 5.64896 17.1665 5.80304C17.3609 5.95711 17.5054 6.16513 17.582 6.40101C17.6585 6.63689 17.6638 6.89013 17.597 7.12898C17.5302 7.36782 17.3944 7.58164 17.2066 7.74361H17.2027Z" fill="#EA2A2A"/>
</svg>
